<svg width="531" height="705" viewBox="0 0 531 705" fill="none" xmlns="http://www.w3.org/2000/svg">
<path opacity="0.5" fill-rule="evenodd" clip-rule="evenodd" d="M398.571 3.83862C468.895 9.56839 535.566 33.6947 593.958 73.2316C651.328 112.076 696.238 165.018 727.692 226.684C760.164 290.348 793.375 361.549 776.417 430.954C759.778 499.052 690.875 537.242 640.004 585.559C594.219 629.045 554.599 683.31 493.549 699.62C433.036 715.787 373.259 682.681 311.314 673.371C237.521 662.281 153.583 685.284 94.5894 639.662C33.7078 592.581 6.56947 510.431 1.42608 433.724C-3.54134 359.643 35.9434 293.033 66.8175 225.484C97.7027 157.911 119.718 80.9414 181.552 39.6298C243.744 -1.92094 323.983 -2.23863 398.571 3.83862Z" stroke="url(#paint0_linear_17_91)"/>
<defs>
<linearGradient id="paint0_linear_17_91" x1="781" y1="0.999966" x2="170.396" y2="825.447" gradientUnits="userSpaceOnUse">
<stop stop-color="#8137FF"/>
<stop offset="1" stop-color="#5925B0"/>
</linearGradient>
</defs>
</svg>
